<?xml version="1.0" encoding="UTF-8"?>
<svg width="18px" height="18px" viewBox="0 0 18 18" version="1.1" xmlns="http://www.w3.org/2000/svg" xmlns:xlink="http://www.w3.org/1999/xlink">
    <!-- Generator: sketchtool 56.3 (101010) - https://sketch.com -->
    <title>5EF3380D-58AA-41B0-A7F0-FCC563E93E47</title>
    <desc>Created with sketchtool.</desc>
    <g id="⚙-Symbols" stroke="none" stroke-width="1" fill="none" fill-rule="evenodd">
        <g id="Component-Guide" transform="translate(-854.000000, -3653.000000)" fill="#38383B">
            <g id="Icon-Set" transform="translate(36.000000, 3537.000000)">
                <g transform="translate(31.000000, 113.000000)" id="ic_search">
                    <g transform="translate(784.000000, 0.000000)">
                        <path d="M14.8819325,14.1918239 L14.8819325,14.1918239 L14.609777,13.9293882 C15.5623213,12.8213265 16.1357919,11.3827902 16.1357919,9.81789594 C16.1357919,6.32847341 13.3073185,3.5 9.81789594,3.5 C6.32847341,3.5 3.5,6.32847341 3.5,9.81789594 C3.5,13.3073185 6.32847341,16.1357919 9.81789594,16.1357919 C11.3827902,16.1357919 12.8213265,15.5623213 13.9293882,14.609777 L14.1918239,14.8819325 C14.1918239,15.3734108 14.3879187,15.8445761 14.7366166,16.1909294 L18.5368261,19.9655865 C18.9384937,20.3645533 19.5872014,20.3634591 19.9875209,19.9631397 C20.3868661,19.5637944 20.3868661,18.9163278 19.9875209,18.5169825 C19.9871713,18.5166329 19.9868215,18.5162836 19.9864714,18.5159346 L16.193551,14.7340001 C15.8453387,14.3867964 15.3736664,14.1918239 14.8819325,14.1918239 Z M9.81789594,14.1918239 C7.3976558,14.1918239 5.44396798,12.2381361 5.44396798,9.81789594 C5.44396798,7.3976558 7.3976558,5.44396798 9.81789594,5.44396798 C12.2381361,5.44396798 14.1918239,7.3976558 14.1918239,9.81789594 C14.1918239,12.2381361 12.2381361,14.1918239 9.81789594,14.1918239 Z" id="search"></path>
                    </g>
                </g>
            </g>
        </g>
    </g>
</svg>